<?xml version="1.0" encoding="utf-8"?>
<!-- Generator: Adobe Illustrator 16.0.0, SVG Export Plug-In . SVG Version: 6.00 Build 0)  -->
<!DOCTYPE svg PUBLIC "-//W3C//DTD SVG 1.1//EN" "http://www.w3.org/Graphics/SVG/1.1/DTD/svg11.dtd">
<svg version="1.1" id="Layer_1" xmlns="http://www.w3.org/2000/svg" xmlns:xlink="http://www.w3.org/1999/xlink" x="0px" y="0px"
	 width="31.879px" height="32px" viewBox="0 0 31.879 32" enable-background="new 0 0 31.879 32" xml:space="preserve">
<line fill="none" stroke="#0C0C6B" stroke-width="9" stroke-miterlimit="10" x1="0" y1="15.5" x2="31.879" y2="15.5"/>
<rect x="3.731" y="3.417" fill="#0C3513" width="24.417" height="24.167"/>
<g>
	<path fill="#FFFFFF" d="M4.073,7.015C4.93,6.847,6.052,6.703,7.48,6.703c1.754,0,3.04,0.48,3.856,1.344
		c0.754,0.768,1.204,1.944,1.204,3.384c0,1.464-0.367,2.616-1.061,3.456c-0.938,1.176-2.469,1.777-4.203,1.777
		c-0.53,0-1.02-0.024-1.428-0.145V23H4.073V7.015z M5.848,14.815c0.388,0.12,0.877,0.168,1.469,0.168
		c2.142,0,3.448-1.224,3.448-3.457c0-2.136-1.286-3.168-3.244-3.168c-0.775,0-1.367,0.072-1.673,0.168V14.815z"/>
	<path fill="#FFFFFF" d="M25.29,15.896c-0.102-2.256-0.224-4.969-0.203-6.985h-0.062c-0.47,1.896-1.04,3.913-1.733,6.145
		l-2.428,7.849h-1.348l-2.223-7.705c-0.653-2.28-1.204-4.368-1.592-6.289h-0.041c-0.041,2.016-0.143,4.729-0.265,7.153L15.028,23
		h-1.693l0.959-16.177h2.265l2.346,7.825c0.57,1.992,1.04,3.769,1.387,5.448h0.062c0.347-1.633,0.837-3.408,1.448-5.448l2.448-7.825
		h2.265L27.372,23h-1.734L25.29,15.896z"/>
</g>
</svg>
